<svg xmlns="http://www.w3.org/2000/svg" xmlns:xlink="http://www.w3.org/1999/xlink" width="75" zoomAndPan="magnify" viewBox="0 0 56.25 56.249997" height="75" preserveAspectRatio="xMidYMid meet" version="1.0"><defs><clipPath id="e14ec642ff"><path d="M 0 2 L 55.511719 2 L 55.511719 53.722656 L 0 53.722656 Z M 0 2 " clip-rule="nonzero"/></clipPath></defs><g clip-path="url(#e14ec642ff)"><path fill="#1d71b8" d="M 18.621094 2.476562 C 18.109375 2.992188 17.902344 5 17.789062 5.785156 C 13.152344 6.199219 7.503906 6.738281 4.105469 10.425781 C 1.117188 13.667969 0.0078125 18.0625 0.0078125 26.703125 C 0.0078125 36.84375 1.972656 46.273438 4.875 50.066406 C 6.765625 52.542969 11.453125 53.585938 19.320312 53.269531 C 29.183594 52.878906 43.554688 51.539062 47.015625 50.691406 C 51.855469 49.503906 54.171875 46.816406 54.871094 41.566406 C 55.257812 38.675781 55.027344 10.929688 54.605469 9.367188 C 54.449219 8.785156 53.859375 7.855469 53.28125 7.296875 C 52.257812 6.300781 52.183594 6.28125 49.265625 6.128906 L 46.292969 5.976562 C 46.152344 4.242188 46.210938 2.921875 44.796875 2.921875 C 43.390625 2.921875 43.519531 5.003906 43.519531 5.839844 L 33.15625 5.703125 C 32.921875 3.15625 32.921875 2.617188 31.898438 2.617188 C 30.226562 2.617188 30.398438 3.851562 30.398438 5.535156 L 20.761719 5.535156 C 20.761719 4.902344 20.847656 2.847656 20.410156 2.394531 C 19.9375 1.914062 19.152344 1.949219 18.621094 2.476562 Z M 17.566406 9.367188 C 17.566406 10.367188 18.113281 11.089844 18.871094 11.089844 C 19.640625 11.089844 20.484375 10.144531 20.484375 9.285156 C 20.484375 8.679688 21.074219 8.757812 30.402344 8.757812 C 30.402344 9.945312 30.28125 10.722656 31.015625 11.109375 C 31.90625 11.585938 33.015625 10.757812 33.015625 9.617188 L 33.015625 8.757812 L 42.929688 8.757812 C 42.929688 12.039062 42.769531 13.703125 44.125 13.703125 C 45.714844 13.703125 45.753906 10.5 45.929688 8.757812 C 50.125 8.757812 50.308594 8.65625 51.109375 9.507812 C 51.722656 10.160156 51.832031 10.589844 51.925781 12.839844 C 52.054688 15.890625 52.652344 15.539062 46.429688 16.082031 C 43.550781 16.335938 36.152344 16.457031 23.179688 16.464844 C 4.289062 16.480469 4.148438 16.476562 4.328125 15.898438 C 6.359375 9.246094 14.578125 9.316406 17.34375 8.800781 C 17.53125 8.761719 17.597656 9.367188 17.566406 9.367188 Z M 46.792969 47.523438 C 43.109375 48.613281 30.484375 49.816406 19.789062 50.097656 C 9.957031 50.355469 7.992188 49.863281 6.433594 46.734375 C 5.507812 44.871094 4.34375 40.648438 3.652344 36.621094 C 2.851562 31.976562 3.160156 20.183594 3.328125 19.746094 C 3.777344 18.582031 36.28125 20.078125 45.265625 19.160156 C 49.808594 18.695312 50.730469 18.710938 51.875 18.675781 C 52.328125 43.167969 52.765625 45.757812 46.792969 47.523438 Z M 46.792969 47.523438 " fill-opacity="1" fill-rule="nonzero"/></g><path fill="#1d71b8" d="M 30.398438 27.003906 C 13.667969 28.515625 12.007812 27.523438 12.007812 29.289062 C 12.007812 30.613281 12.621094 30.777344 17.230469 30.695312 C 22.703125 30.597656 41.199219 29.273438 42.152344 28.910156 C 43.125 28.542969 43.414062 27.539062 42.761719 26.816406 C 41.636719 25.566406 32.335938 27.003906 30.398438 27.003906 Z M 30.398438 27.003906 " fill-opacity="1" fill-rule="nonzero"/><path fill="#1d71b8" d="M 16.761719 37.390625 C 16.242188 37.828125 16.289062 38.953125 16.84375 39.417969 C 17.566406 40.019531 38.804688 37.390625 39.402344 37.074219 C 40.324219 36.585938 40.234375 35.082031 39.265625 34.707031 C 38.296875 34.332031 38.738281 34.289062 27.210938 35.773438 C 27.238281 35.773438 17.136719 37.078125 16.761719 37.390625 Z M 16.761719 37.390625 " fill-opacity="1" fill-rule="nonzero"/></svg>