<svg xmlns="http://www.w3.org/2000/svg" xmlns:xlink="http://www.w3.org/1999/xlink" width="75" zoomAndPan="magnify" viewBox="0 0 56.25 56.249997" height="75" preserveAspectRatio="xMidYMid meet" version="1.0"><defs><clipPath id="e370b2c41f"><path d="M 32 28 L 49 28 L 49 55.511719 L 32 55.511719 Z M 32 28 " clip-rule="nonzero"/></clipPath><clipPath id="a10a888394"><path d="M 6.3125 29 L 23 29 L 23 55 L 6.3125 55 Z M 6.3125 29 " clip-rule="nonzero"/></clipPath></defs><path fill="#1d71b8" d="M 25.652344 0.460938 C 24.105469 1.019531 22.113281 2.371094 21.03125 3.605469 C 20.566406 4.128906 19.835938 5.304688 19.398438 6.234375 C 18.761719 7.582031 18.40625 8.027344 17.609375 8.488281 C 16.285156 9.253906 15.011719 10.699219 14.710938 11.777344 C 14.371094 13.007812 14.402344 15.46875 14.777344 16.90625 C 15.507812 19.679688 14.117188 22.261719 15.910156 24.304688 C 16.917969 25.453125 17.742188 25.800781 19.777344 25.945312 C 21.457031 26.066406 21.597656 26.121094 22.605469 27.058594 C 25.515625 29.769531 29.121094 30.160156 32.28125 28.117188 C 34.988281 26.363281 35.761719 23.972656 36.609375 21.125 C 40.511719 19.808594 41.382812 19.734375 41.363281 15.402344 C 41.34375 12.023438 40.535156 10.308594 38.488281 9.328125 C 37.398438 8.804688 37.328125 8.6875 37.089844 6.964844 C 36.878906 5.4375 35.730469 3.257812 34.597656 2.230469 C 33.03125 0.804688 31.394531 0.1875 28.964844 0.101562 C 26.222656 0 25.871094 0.460938 25.652344 0.460938 Z M 30.820312 2.730469 C 33.257812 3.558594 34.886719 6.054688 34.886719 8.972656 C 34.886719 10.894531 34.574219 11.050781 30.730469 11.050781 C 27.242188 11.050781 25.371094 10.664062 22.445312 9.335938 C 20.621094 8.503906 20.585938 8.289062 21.933594 6.277344 C 24.144531 2.984375 27.558594 1.621094 30.820312 2.730469 Z M 18.515625 17.191406 C 17.558594 17.203125 16.792969 17.519531 16.792969 14.140625 C 16.792969 12.375 17.007812 11.769531 17.917969 10.992188 C 18.78125 10.25 18.902344 10.320312 18.71875 11.445312 C 18.757812 11.445312 18.574219 11.015625 18.515625 17.191406 Z M 22.449219 11.746094 C 26.578125 13.570312 29.28125 13.355469 34.15625 13.371094 C 34.296875 14.273438 34.484375 14.960938 34.347656 18.097656 C 34.152344 22.519531 32.96875 25.027344 30.46875 26.320312 C 28.742188 27.207031 26.84375 27.144531 25.34375 26.152344 L 24.324219 25.476562 C 25.003906 25.195312 25.597656 24.867188 26.246094 25.113281 C 28.949219 26.140625 31.894531 23.167969 29.695312 20.773438 C 28.140625 19.074219 25.6875 19.625 24.863281 21.855469 C 24.5625 22.671875 24.328125 22.941406 23.773438 23.097656 C 22.742188 23.394531 22.457031 23.179688 21.890625 21.679688 C 20.183594 17.144531 20.765625 11.160156 21.054688 11.160156 C 21.105469 11.160156 22.472656 11.746094 22.449219 11.746094 Z M 38.222656 18.101562 C 37.207031 18.5625 36.960938 18.445312 36.949219 17.5 C 36.921875 14.734375 36.328125 12.894531 36.933594 11.84375 C 37.375 11.078125 37.902344 11.25 38.582031 12.375 C 38.902344 12.375 40.058594 17.269531 38.222656 18.101562 Z M 19.277344 21.199219 C 19.546875 22.128906 19.847656 23.089844 19.941406 23.332031 C 20.089844 23.730469 20.015625 23.761719 19.199219 23.628906 C 17.972656 23.429688 17.277344 22.671875 17.097656 21.324219 C 16.902344 19.84375 17.070312 19.511719 18.007812 19.511719 C 18.765625 19.511719 18.789062 19.542969 19.277344 21.199219 Z M 28.046875 22.339844 C 28.265625 22.691406 27.449219 23.320312 27.152344 23.023438 C 26.855469 22.726562 27.132812 22.074219 27.550781 22.074219 C 27.828125 22.074219 28.078125 22.339844 28.042969 22.339844 Z M 28.046875 22.339844 " fill-opacity="1" fill-rule="nonzero"/><g clip-path="url(#e370b2c41f)"><path fill="#1d71b8" d="M 32.359375 29.914062 C 32.230469 30.832031 32.699219 31.109375 34.378906 31.113281 C 43.644531 31.140625 45.433594 40.625 46.382812 49.84375 C 46.558594 51.574219 46.792969 51.425781 42.417969 52.347656 C 39.058594 53.050781 38.355469 53.375 38.355469 54.195312 C 38.355469 55.496094 39.039062 55.511719 44.054688 54.328125 C 47.324219 53.550781 48.445312 53.035156 48.785156 52.140625 C 49.1875 51.082031 47.949219 42.042969 47.015625 39.238281 C 45.183594 33.738281 42.007812 30.285156 37.890625 29.316406 C 35.992188 28.871094 33.636719 28.761719 33.007812 29.089844 C 33.03125 29.089844 32.429688 29.402344 32.359375 29.914062 Z M 32.359375 29.914062 " fill-opacity="1" fill-rule="nonzero"/></g><g clip-path="url(#a10a888394)"><path fill="#1d71b8" d="M 15.839844 29.925781 C 12.796875 30.71875 10.660156 32.589844 9.113281 35.816406 C 7.253906 39.699219 6.324219 45.605469 6.738281 50.882812 C 7.027344 54.550781 7.027344 54.550781 10.386719 54.550781 C 13.125 54.550781 13.542969 54.410156 13.542969 53.5 C 13.542969 52.65625 13.082031 52.449219 11.203125 52.449219 C 9.789062 52.449219 9.382812 52.371094 9.265625 52.074219 C 8.984375 51.351562 9.132812 45.117188 9.480469 42.972656 C 9.957031 40.035156 11.097656 36.695312 12.121094 35.238281 C 13.957031 32.636719 15.90625 31.761719 19.972656 31.726562 C 22.222656 31.707031 22.632812 31.644531 22.839844 31.285156 C 23.1875 30.671875 22.863281 30.027344 22.070312 29.75 C 21 29.378906 17.5625 29.476562 15.839844 29.925781 Z M 15.839844 29.925781 " fill-opacity="1" fill-rule="nonzero"/></g><path fill="#1d71b8" d="M 20.8125 32.992188 C 15.355469 33.308594 13.929688 33.894531 13.523438 35.992188 C 13.257812 37.367188 13.300781 49.003906 13.300781 48.980469 C 11.078125 48.980469 10.589844 48.910156 10.199219 49.46875 C 9.777344 50.074219 9.964844 50.777344 10.605469 50.988281 C 11.097656 51.148438 42.738281 51.316406 43.855469 50.855469 C 45.476562 50.183594 44.671875 48.519531 42.730469 48.519531 C 42.339844 48.519531 42.308594 48.273438 42.296875 45.09375 C 42.273438 40.054688 41.953125 37.042969 41.308594 35.769531 C 40.296875 33.796875 38.753906 33.335938 31.902344 32.972656 C 24.449219 32.582031 21.902344 32.992188 20.8125 32.992188 Z M 37.757812 36.011719 C 39.4375 36.433594 39.539062 36.785156 39.816406 43.015625 C 39.960938 46.242188 39.972656 48.375 39.84375 48.496094 C 39.5625 48.761719 15.574219 48.871094 15.597656 48.871094 C 15.605469 46.8125 15.605469 37.789062 15.78125 36.894531 C 15.964844 35.980469 16.371094 35.796875 18.691406 35.554688 C 21.839844 35.230469 34.167969 35.117188 37.757812 36.011719 Z M 37.757812 36.011719 " fill-opacity="1" fill-rule="nonzero"/><path fill="#1d71b8" d="M 26.644531 39.527344 C 25.714844 40.457031 25.605469 40.671875 25.605469 41.648438 C 25.605469 42.554688 25.730469 42.863281 26.359375 43.546875 C 28.34375 45.710938 31.859375 44.609375 31.859375 41.824219 C 31.859375 39.933594 30.84375 38.859375 28.832031 38.625 C 27.707031 38.492188 27.664062 38.507812 26.644531 39.527344 Z M 29.492188 41.714844 C 29.589844 42.398438 28.722656 42.652344 28.125 42.113281 C 27.773438 41.792969 27.738281 41.648438 27.960938 41.382812 C 28.367188 40.894531 29.410156 41.117188 29.492188 41.714844 Z M 29.492188 41.714844 " fill-opacity="1" fill-rule="nonzero"/></svg>