<svg xmlns="http://www.w3.org/2000/svg" xmlns:xlink="http://www.w3.org/1999/xlink" width="2240" zoomAndPan="magnify" viewBox="0 0 1680 749.999995" height="1000" preserveAspectRatio="xMidYMid meet" version="1.0"><defs><g/><clipPath id="3e7b488fcd"><path d="M 542.265625 240.578125 L 769 240.578125 L 769 512.007812 L 542.265625 512.007812 Z M 542.265625 240.578125 " clip-rule="nonzero"/></clipPath></defs><g fill="#ffffff" fill-opacity="1"><g transform="translate(231.343089, 486.089053)"><g><path d="M 280.53125 -225 L 280.53125 0 L 217.984375 0 L 217.984375 -124.15625 L 175.53125 0 L 123.1875 0 L 80.421875 -125.109375 L 80.421875 0 L 17.875 0 L 17.875 -225 L 93.515625 -225 L 150 -78.828125 L 205.21875 -225 Z M 280.53125 -225 "/></g></g></g><g fill="#ffffff" fill-opacity="1"><g transform="translate(553.066105, 486.089053)"><g/></g></g><g fill="#ffffff" fill-opacity="1"><g transform="translate(637.324399, 486.089053)"><g/></g></g><g fill="#ffffff" fill-opacity="1"><g transform="translate(721.582694, 486.089053)"><g/></g></g><g fill="#ffffff" fill-opacity="1"><g transform="translate(805.845516, 486.089053)"><g><path d="M 187.34375 -225 L 187.34375 -175.21875 L 127.34375 -175.21875 L 127.34375 0 L 64.78125 0 L 64.78125 -175.21875 L 5.421875 -175.21875 L 5.421875 -225 Z M 187.34375 -225 "/></g></g></g><g fill="#ffffff" fill-opacity="1"><g transform="translate(1021.916827, 486.089053)"><g><path d="M 160.21875 -36.703125 L 80.421875 -36.703125 L 68.296875 0 L 2.546875 0 L 84.578125 -225 L 156.703125 -225 L 238.40625 0 L 172.34375 0 Z M 144.578125 -84.578125 L 120.328125 -157.34375 L 96.390625 -84.578125 Z M 144.578125 -84.578125 "/></g></g></g><g fill="#ffffff" fill-opacity="1"><g transform="translate(1286.181315, 486.089053)"><g><path d="M 102.765625 2.234375 C 76.597656 2.234375 55.109375 -3.988281 38.296875 -16.4375 C 21.484375 -28.882812 12.441406 -46.703125 11.171875 -69.890625 L 77.875 -69.890625 C 78.507812 -62.023438 80.847656 -56.28125 84.890625 -52.65625 C 88.929688 -49.039062 94.144531 -47.234375 100.53125 -47.234375 C 106.28125 -47.234375 111.015625 -48.671875 114.734375 -51.546875 C 118.460938 -54.421875 120.328125 -58.410156 120.328125 -63.515625 C 120.328125 -70.109375 117.238281 -75.210938 111.0625 -78.828125 C 104.894531 -82.441406 94.894531 -86.484375 81.0625 -90.953125 C 66.382812 -95.847656 54.523438 -100.582031 45.484375 -105.15625 C 36.441406 -109.738281 28.566406 -116.441406 21.859375 -125.265625 C 15.160156 -134.097656 11.8125 -145.640625 11.8125 -159.890625 C 11.8125 -174.359375 15.425781 -186.753906 22.65625 -197.078125 C 29.894531 -207.398438 39.894531 -215.21875 52.65625 -220.53125 C 65.425781 -225.851562 79.894531 -228.515625 96.0625 -228.515625 C 122.238281 -228.515625 143.144531 -222.394531 158.78125 -210.15625 C 174.414062 -197.925781 182.765625 -180.75 183.828125 -158.625 L 115.859375 -158.625 C 115.640625 -165.425781 113.5625 -170.53125 109.625 -173.9375 C 105.6875 -177.34375 100.632812 -179.046875 94.46875 -179.046875 C 89.789062 -179.046875 85.960938 -177.660156 82.984375 -174.890625 C 80.003906 -172.128906 78.515625 -168.195312 78.515625 -163.09375 C 78.515625 -158.832031 80.160156 -155.160156 83.453125 -152.078125 C 86.753906 -148.992188 90.851562 -146.332031 95.75 -144.09375 C 100.644531 -141.863281 107.878906 -139.046875 117.453125 -135.640625 C 131.703125 -130.742188 143.453125 -125.898438 152.703125 -121.109375 C 161.960938 -116.328125 169.941406 -109.628906 176.640625 -101.015625 C 183.347656 -92.398438 186.703125 -81.492188 186.703125 -68.296875 C 186.703125 -54.890625 183.347656 -42.867188 176.640625 -32.234375 C 169.941406 -21.597656 160.265625 -13.191406 147.609375 -7.015625 C 134.953125 -0.847656 120.003906 2.234375 102.765625 2.234375 Z M 102.765625 2.234375 "/></g></g></g><g clip-path="url(#3e7b488fcd)"><path fill="#ffffff" d="M 723.46875 490.839844 C 715.554688 486.769531 708.054688 481.640625 701.171875 475.429688 L 710.292969 458.679688 C 710.269531 458.660156 710.246094 458.640625 710.226562 458.617188 C 706.074219 454.464844 702.433594 449.992188 699.300781 445.28125 L 680.195312 449.414062 C 675.757812 441.640625 672.382812 433.429688 670.089844 424.984375 L 686.839844 415.808594 C 685.476562 409.546875 684.796875 403.167969 684.835938 396.785156 L 666.648438 389.980469 C 667.246094 381.367188 668.894531 372.820312 671.601562 364.539062 L 690.710938 365.886719 C 693.125 359.660156 696.285156 353.664062 700.191406 348.019531 L 688.65625 332.574219 C 691.273438 329.234375 694.113281 326.007812 697.191406 322.929688 C 700.273438 319.851562 703.496094 317.007812 706.839844 314.390625 L 722.285156 325.929688 C 727.925781 322.019531 733.921875 318.859375 740.148438 316.445312 L 738.804688 297.339844 C 745.550781 295.132812 752.472656 293.640625 759.464844 292.835938 L 768.011719 274.066406 C 759.566406 266.71875 750.210938 260.390625 740.128906 255.277344 L 723.839844 274.035156 C 715.914062 270.542969 707.515625 267.941406 698.757812 266.347656 L 695.171875 241.601562 C 689.707031 240.933594 684.136719 240.582031 678.488281 240.582031 C 672.84375 240.582031 667.277344 240.933594 661.808594 241.601562 L 658.226562 266.347656 C 649.46875 267.941406 641.066406 270.542969 633.144531 274.035156 L 616.851562 255.277344 C 606.773438 260.390625 597.414062 266.71875 588.972656 274.066406 L 599.414062 296.996094 C 593.527344 302.8125 588.289062 309.285156 583.800781 316.28125 L 560.019531 309.332031 C 554.378906 319.183594 549.9375 329.8125 546.882812 341.011719 L 568.195312 354.742188 C 566.75 361.9375 565.984375 369.378906 565.984375 377 C 565.984375 377.039062 565.988281 377.078125 565.988281 377.117188 L 542.261719 384.113281 C 542.875 396.121094 545.050781 407.710938 548.578125 418.703125 L 574.015625 418.730469 C 576.503906 424.953125 579.519531 430.90625 583.035156 436.523438 L 566.789062 455.3125 C 573.707031 465.164062 581.894531 474.054688 591.113281 481.753906 L 612.460938 468.066406 C 617.316406 471.59375 622.460938 474.738281 627.859375 477.460938 L 624.328125 502.230469 C 635.320312 506.992188 647.0625 510.347656 659.328125 512.070312 L 669.828125 489.140625 C 672.691406 489.363281 675.574219 489.507812 678.488281 489.507812 C 681.40625 489.507812 684.289062 489.363281 687.152344 489.140625 L 697.65625 512.070312 C 709.921875 510.347656 721.664062 506.992188 732.65625 502.230469 L 730.085938 484.234375 L 723.46875 490.839844 " fill-opacity="1" fill-rule="nonzero"/></g><path fill="#ffffff" d="M 754.953125 413.15625 C 763.917969 422.121094 778.453125 422.121094 787.421875 413.15625 C 796.386719 404.191406 796.386719 389.65625 787.421875 380.6875 C 778.453125 371.726562 763.917969 371.726562 754.953125 380.6875 C 745.988281 389.65625 745.988281 404.191406 754.953125 413.15625 " fill-opacity="1" fill-rule="nonzero"/></svg>