<svg xmlns="http://www.w3.org/2000/svg" xmlns:xlink="http://www.w3.org/1999/xlink" width="150" zoomAndPan="magnify" viewBox="0 0 112.5 31.5" height="42" preserveAspectRatio="xMidYMid meet" version="1.0"><defs><g/><clipPath id="acd524aaa2"><path d="M 33.890625 4.261719 L 53 4.261719 L 53 26.589844 L 33.890625 26.589844 Z M 33.890625 4.261719 " clip-rule="nonzero"/></clipPath><clipPath id="69a3a3bedf"><path d="M 50 15 L 54.800781 15 L 54.800781 20 L 50 20 Z M 50 15 " clip-rule="nonzero"/></clipPath></defs><g fill="#ffffff" fill-opacity="1"><g transform="translate(8.311264, 24.458276)"><g><path d="M 23.09375 -18.515625 L 23.09375 0 L 17.9375 0 L 17.9375 -10.21875 L 14.453125 0 L 10.140625 0 L 6.625 -10.296875 L 6.625 0 L 1.46875 0 L 1.46875 -18.515625 L 7.703125 -18.515625 L 12.34375 -6.484375 L 16.890625 -18.515625 Z M 23.09375 -18.515625 "/></g></g></g><g fill="#ffffff" fill-opacity="1"><g transform="translate(34.779961, 24.458276)"><g/></g></g><g fill="#ffffff" fill-opacity="1"><g transform="translate(41.712033, 24.458276)"><g/></g></g><g fill="#ffffff" fill-opacity="1"><g transform="translate(48.644105, 24.458276)"><g/></g></g><g fill="#ffffff" fill-opacity="1"><g transform="translate(55.57655, 24.458276)"><g><path d="M 15.421875 -18.515625 L 15.421875 -14.421875 L 10.484375 -14.421875 L 10.484375 0 L 5.328125 0 L 5.328125 -14.421875 L 0.453125 -14.421875 L 0.453125 -18.515625 Z M 15.421875 -18.515625 "/></g></g></g><g fill="#ffffff" fill-opacity="1"><g transform="translate(73.353103, 24.458276)"><g><path d="M 13.1875 -3.015625 L 6.625 -3.015625 L 5.625 0 L 0.203125 0 L 6.953125 -18.515625 L 12.890625 -18.515625 L 19.625 0 L 14.1875 0 Z M 11.890625 -6.953125 L 9.90625 -12.953125 L 7.9375 -6.953125 Z M 11.890625 -6.953125 "/></g></g></g><g fill="#ffffff" fill-opacity="1"><g transform="translate(95.094589, 24.458276)"><g><path d="M 8.453125 0.1875 C 6.304688 0.1875 4.539062 -0.320312 3.15625 -1.34375 C 1.769531 -2.375 1.023438 -3.84375 0.921875 -5.75 L 6.40625 -5.75 C 6.457031 -5.101562 6.648438 -4.628906 6.984375 -4.328125 C 7.316406 -4.035156 7.75 -3.890625 8.28125 -3.890625 C 8.75 -3.890625 9.132812 -4.003906 9.4375 -4.234375 C 9.75 -4.472656 9.90625 -4.804688 9.90625 -5.234375 C 9.90625 -5.773438 9.648438 -6.191406 9.140625 -6.484375 C 8.628906 -6.785156 7.804688 -7.117188 6.671875 -7.484375 C 5.460938 -7.890625 4.484375 -8.28125 3.734375 -8.65625 C 2.992188 -9.03125 2.347656 -9.582031 1.796875 -10.3125 C 1.242188 -11.039062 0.96875 -11.988281 0.96875 -13.15625 C 0.96875 -14.34375 1.265625 -15.363281 1.859375 -16.21875 C 2.460938 -17.070312 3.285156 -17.71875 4.328125 -18.15625 C 5.378906 -18.59375 6.570312 -18.8125 7.90625 -18.8125 C 10.0625 -18.8125 11.78125 -18.304688 13.0625 -17.296875 C 14.351562 -16.285156 15.039062 -14.867188 15.125 -13.046875 L 9.53125 -13.046875 C 9.519531 -13.609375 9.347656 -14.03125 9.015625 -14.3125 C 8.691406 -14.59375 8.28125 -14.734375 7.78125 -14.734375 C 7.394531 -14.734375 7.078125 -14.617188 6.828125 -14.390625 C 6.585938 -14.160156 6.46875 -13.835938 6.46875 -13.421875 C 6.46875 -13.066406 6.601562 -12.765625 6.875 -12.515625 C 7.144531 -12.265625 7.476562 -12.046875 7.875 -11.859375 C 8.28125 -11.671875 8.878906 -11.4375 9.671875 -11.15625 C 10.835938 -10.757812 11.800781 -10.363281 12.5625 -9.96875 C 13.320312 -9.570312 13.976562 -9.019531 14.53125 -8.3125 C 15.082031 -7.601562 15.359375 -6.707031 15.359375 -5.625 C 15.359375 -4.519531 15.082031 -3.53125 14.53125 -2.65625 C 13.976562 -1.78125 13.179688 -1.085938 12.140625 -0.578125 C 11.097656 -0.0664062 9.867188 0.1875 8.453125 0.1875 Z M 8.453125 0.1875 "/></g></g></g><g clip-path="url(#acd524aaa2)"><path fill="#ffffff" d="M 48.800781 24.847656 C 48.148438 24.515625 47.53125 24.09375 46.964844 23.582031 L 47.714844 22.203125 C 47.714844 22.203125 47.710938 22.199219 47.710938 22.199219 C 47.367188 21.855469 47.070312 21.488281 46.8125 21.101562 L 45.238281 21.441406 C 44.875 20.800781 44.597656 20.125 44.40625 19.429688 L 45.785156 18.675781 C 45.671875 18.160156 45.617188 17.636719 45.621094 17.109375 L 44.125 16.550781 C 44.171875 15.84375 44.308594 15.140625 44.53125 14.457031 L 46.105469 14.570312 C 46.304688 14.058594 46.5625 13.5625 46.882812 13.097656 L 45.933594 11.828125 C 46.152344 11.554688 46.382812 11.289062 46.636719 11.035156 C 46.890625 10.78125 47.15625 10.546875 47.429688 10.332031 L 48.703125 11.28125 C 49.164062 10.960938 49.660156 10.699219 50.171875 10.5 L 50.0625 8.929688 C 50.617188 8.746094 51.1875 8.625 51.761719 8.558594 L 52.464844 7.015625 C 51.769531 6.410156 51 5.890625 50.171875 5.46875 L 48.828125 7.011719 C 48.179688 6.726562 47.488281 6.511719 46.765625 6.378906 L 46.472656 4.34375 C 46.023438 4.289062 45.5625 4.261719 45.097656 4.261719 C 44.632812 4.261719 44.175781 4.289062 43.726562 4.34375 L 43.433594 6.378906 C 42.710938 6.511719 42.019531 6.726562 41.367188 7.011719 L 40.027344 5.46875 C 39.199219 5.890625 38.429688 6.410156 37.734375 7.015625 L 38.59375 8.902344 C 38.109375 9.378906 37.679688 9.914062 37.308594 10.488281 L 35.351562 9.917969 C 34.886719 10.726562 34.523438 11.601562 34.269531 12.523438 L 36.023438 13.652344 C 35.90625 14.242188 35.84375 14.855469 35.84375 15.484375 C 35.84375 15.488281 35.84375 15.488281 35.84375 15.492188 L 33.890625 16.070312 C 33.941406 17.054688 34.121094 18.011719 34.410156 18.914062 L 36.503906 18.917969 C 36.707031 19.429688 36.957031 19.917969 37.246094 20.378906 L 35.910156 21.925781 C 36.476562 22.738281 37.152344 23.46875 37.910156 24.101562 L 39.667969 22.976562 C 40.066406 23.265625 40.488281 23.523438 40.933594 23.75 L 40.644531 25.785156 C 41.546875 26.179688 42.511719 26.453125 43.523438 26.597656 L 44.386719 24.710938 C 44.621094 24.726562 44.859375 24.738281 45.097656 24.738281 C 45.339844 24.738281 45.574219 24.726562 45.8125 24.710938 L 46.675781 26.597656 C 47.683594 26.453125 48.652344 26.179688 49.554688 25.785156 L 49.34375 24.304688 L 48.800781 24.847656 " fill-opacity="1" fill-rule="nonzero"/></g><g clip-path="url(#69a3a3bedf)"><path fill="#ffffff" d="M 51.390625 18.457031 C 52.128906 19.195312 53.324219 19.195312 54.0625 18.457031 C 54.796875 17.71875 54.796875 16.523438 54.0625 15.785156 C 53.324219 15.050781 52.128906 15.050781 51.390625 15.785156 C 50.652344 16.523438 50.652344 17.71875 51.390625 18.457031 " fill-opacity="1" fill-rule="nonzero"/></g></svg>